<svg xmlns="http://www.w3.org/2000/svg" viewBox="0 0 40 40" fill="none">
  <rect width="40" height="40" rx="8" fill="url(#wc-gradient)"/>
  <path d="M12.5 16.5C16.6 12.5 23.4 12.5 27.5 16.5L28.1 17.1C28.3 17.3 28.3 17.6 28.1 17.8L26.5 19.4C26.4 19.5 26.2 19.5 26.1 19.4L25.3 18.6C22.4 15.7 17.6 15.7 14.7 18.6L13.8 19.5C13.7 19.6 13.5 19.6 13.4 19.5L11.8 17.9C11.6 17.7 11.6 17.4 11.8 17.2L12.5 16.5ZM30.5 19.5L31.9 20.9C32.1 21.1 32.1 21.4 31.9 21.6L25.3 28.2C25 28.5 24.5 28.5 24.2 28.2L19.5 23.5C19.45 23.45 19.35 23.45 19.3 23.5L14.6 28.2C14.3 28.5 13.8 28.5 13.5 28.2L6.9 21.6C6.7 21.4 6.7 21.1 6.9 20.9L8.3 19.5C8.5 19.3 8.8 19.3 9 19.5L13.7 24.2C13.75 24.25 13.85 24.25 13.9 24.2L18.6 19.5C18.9 19.2 19.4 19.2 19.7 19.5L24.4 24.2C24.45 24.25 24.55 24.25 24.6 24.2L29.3 19.5C29.5 19.3 29.8 19.3 30 19.5L30.5 19.5Z" fill="white"/>
  <defs>
    <linearGradient id="wc-gradient" x1="0" y1="0" x2="40" y2="40">
      <stop stop-color="#3B99FC"/>
      <stop offset="1" stop-color="#6366F1"/>
    </linearGradient>
  </defs>
</svg>
